<svg xmlns="http://www.w3.org/2000/svg" xmlns:svg="http://www.w3.org/2000/svg" xmlns:xlink="http://www.w3.org/1999/xlink" id="svg5079" width="96mm" height="96mm" version="1.1" viewBox="0 0 340.157 340.157"><defs id="defs5081"><radialGradient id="radialGradient10262" cx="23.223" cy="43.927" r="20.708" fx="23.223" fy="43.927" gradientTransform="matrix(2.7370564,-0.05998299,0.00424155,0.77095513,419.53618,518.54726)" gradientUnits="userSpaceOnUse" xlink:href="#linearGradient4966"/><linearGradient id="linearGradient4966"><stop style="stop-color:#2e3436;stop-opacity:1" id="stop4968" offset="0"/><stop style="stop-color:#2e3436;stop-opacity:0" id="stop4970" offset="1"/></linearGradient><mask id="mask12964" maskUnits="userSpaceOnUse"><path id="path12966" d="m 5.6568545,95.292585 0,114.551295 L 16.263455,243.0779 27.22361,210.19743 28.284271,94.939031 c 0,0 -0.98523,-8.838834 -11.667263,-8.838834 -10.5052545,0 -10.9601535,9.192388 -10.9601535,9.192388 z" style="display:inline;fill:url(#linearGradient12968);fill-opacity:1;fill-rule:evenodd;stroke:none;stroke-width:1px;stroke-linecap:butt;stroke-linejoin:miter;stroke-opacity:1;enable-background:new"/></mask><linearGradient id="linearGradient12968" x1="-32.88" x2="-10.253" y1="154.336" y2="154.69" gradientTransform="translate(38.53732,13.435026)" gradientUnits="userSpaceOnUse" xlink:href="#linearGradient12874"/><linearGradient id="linearGradient12874"><stop style="stop-color:#cb9022;stop-opacity:1" id="stop12876" offset="0"/><stop id="stop12882" offset=".327" style="stop-color:#e69412;stop-opacity:1"/><stop style="stop-color:#a56806;stop-opacity:1" id="stop12884" offset=".719"/><stop style="stop-color:#683c00;stop-opacity:1" id="stop12878" offset="1"/></linearGradient><filter id="filter12956" width="1.29" height="1.049" x="-.145" y="-.025"><feGaussianBlur id="feGaussianBlur12958" stdDeviation="1.667"/></filter><linearGradient id="linearGradient13101" x1="-31.644" x2="-13.787" y1="85.04" y2="85.04" gradientTransform="matrix(0.90179303,0.52065045,-0.5261439,0.91130796,576.81233,315.97717)" gradientUnits="userSpaceOnUse" xlink:href="#linearGradient12852"/><linearGradient id="linearGradient12852"><stop style="stop-color:#a40000;stop-opacity:1" id="stop12854" offset="0"/><stop id="stop12860" offset=".507" style="stop-color:#ef2929;stop-opacity:1"/><stop style="stop-color:#b50909;stop-opacity:1" id="stop12862" offset=".885"/><stop style="stop-color:#9c0000;stop-opacity:1" id="stop12856" offset="1"/></linearGradient><linearGradient id="linearGradient13099" x1="25.719" x2="25.515" y1="31.047" y2="30.703" gradientTransform="matrix(4.2127733,-2.8752993,2.8761793,4.2109443,245.56695,443.48727)" gradientUnits="userSpaceOnUse" xlink:href="#linearGradient2994"/><linearGradient id="linearGradient2994"><stop style="stop-color:#000;stop-opacity:1" id="stop2996" offset="0"/><stop style="stop-color:#c9c9c9;stop-opacity:1" id="stop2998" offset="1"/></linearGradient><radialGradient id="radialGradient13097" cx="28.908" cy="27.929" r="3.241" fx="28.908" fy="27.929" gradientTransform="matrix(12.316326,-8.4061277,5.8378313,8.5470265,-69.769467,485.78193)" gradientUnits="userSpaceOnUse" xlink:href="#linearGradient2984"/><linearGradient id="linearGradient2984"><stop style="stop-color:#e7e2b8;stop-opacity:1" id="stop2986" offset="0"/><stop style="stop-color:#e7e2b8;stop-opacity:0" id="stop2988" offset="1"/></linearGradient><linearGradient id="linearGradient13095" x1="46.628" x2="47.877" y1="19.648" y2="22.246" gradientTransform="matrix(4.1815335,-2.8933356,2.8112276,4.1734445,248.75333,444.17881)" gradientUnits="userSpaceOnUse" xlink:href="#linearGradient12864"/><linearGradient id="linearGradient12864"><stop id="stop12866" offset="0" style="stop-color:#888a85;stop-opacity:1"/><stop style="stop-color:#d3d7cf;stop-opacity:1" id="stop12870" offset=".42"/><stop id="stop12872" offset=".855" style="stop-color:#949791;stop-opacity:1"/><stop id="stop12868" offset="1" style="stop-color:#6e706b;stop-opacity:1"/></linearGradient><linearGradient id="linearGradient13093" x1="-32.88" x2="-10.253" y1="154.336" y2="154.69" gradientTransform="matrix(0.8660254,0.5,-0.5,0.8660254,573.34202,320.03654)" gradientUnits="userSpaceOnUse" xlink:href="#linearGradient12991"/><linearGradient id="linearGradient12991"><stop id="stop12993" offset="0" style="stop-color:#cb9022;stop-opacity:1"/><stop style="stop-color:#e69412;stop-opacity:1" id="stop12995" offset=".327"/><stop id="stop12997" offset=".606" style="stop-color:#c37b07;stop-opacity:1"/><stop id="stop12999" offset="1" style="stop-color:#683c00;stop-opacity:1"/></linearGradient><filter id="filter13151" width="1.436" height="1.309" x="-.218" y="-.155"><feGaussianBlur id="feGaussianBlur13153" stdDeviation="3.464"/></filter><mask id="mask12221" maskUnits="userSpaceOnUse"><rect style="display:inline;opacity:1;fill:#eeeeec;fill-opacity:1;stroke:none;stroke-width:1.00000012;stroke-linecap:round;stroke-linejoin:round;stroke-miterlimit:4;stroke-dasharray:none;stroke-dashoffset:0;stroke-opacity:1;enable-background:new" id="rect12223" width="141.725" height="207.477" x="-196.363" y="72.511"/></mask><filter id="filter12283"><feGaussianBlur id="feGaussianBlur12285" stdDeviation="2.272"/></filter><linearGradient id="linearGradient13111" x1="-154.503" x2="-154.503" y1="127.466" y2="151.508" gradientTransform="translate(531.18941,271.14792)" gradientUnits="userSpaceOnUse" xlink:href="#linearGradient13105"/><linearGradient id="linearGradient13105"><stop style="stop-color:#6191cd;stop-opacity:1" id="stop13107" offset="0"/><stop style="stop-color:#264b7a;stop-opacity:1" id="stop13109" offset="1"/></linearGradient><linearGradient id="linearGradient13091" x1="-147.18" x2="-37.848" y1="128.494" y2="347.015" gradientTransform="matrix(0.993018,0,0,1,529.81491,271.14792)" gradientUnits="userSpaceOnUse" xlink:href="#linearGradient12239"/><linearGradient id="linearGradient12239"><stop style="stop-color:#fff;stop-opacity:1" id="stop12241" offset="0"/><stop style="stop-color:#d3d7cf;stop-opacity:1" id="stop12243" offset="1"/></linearGradient><filter id="filter13037" width="1.306" height="2.649" x="-.153" y="-.824"><feGaussianBlur id="feGaussianBlur13039" stdDeviation="2.11"/></filter></defs><metadata id="metadata5084"/><g id="layer1" transform="translate(0,-712.20472)"><g id="g5845" transform="matrix(1.3390011,0,0,1.3390011,-373.03043,283.37158)"><rect id="rect10200" width="33.071" height="6.143" x="3" y="40.929" rx=".323" ry=".481" transform="matrix(5.0899635,0,0,3.4162224,299.68404,393.60597)" style="display:inline;opacity:.10256407;fill:#000;fill-opacity:1;stroke:none;stroke-width:1;stroke-linecap:round;stroke-linejoin:miter;stroke-miterlimit:4;stroke-dasharray:none;stroke-dashoffset:0;stroke-opacity:1;filter:url(#filter13037);enable-background:new"/><rect style="display:inline;opacity:1;fill:url(#linearGradient13091);fill-opacity:1;stroke:none;stroke-width:1.00000012;stroke-linecap:round;stroke-linejoin:round;stroke-miterlimit:4;stroke-dasharray:none;stroke-dashoffset:0;stroke-opacity:1;enable-background:new" id="rect12225" width="142.225" height="205.977" x="334.327" y="344.159"/><rect id="rect13103" width="142.836" height="36.062" x="333.553" y="390.482" style="display:inline;opacity:.6512821;fill:url(#linearGradient13111);fill-opacity:1;stroke:none;stroke-width:5;stroke-linecap:round;stroke-linejoin:miter;stroke-miterlimit:4;stroke-dasharray:none;stroke-dashoffset:0;stroke-opacity:1;enable-background:new"/><rect style="display:inline;opacity:.24102562;fill:none;fill-opacity:1;stroke:#000;stroke-width:5;stroke-linecap:round;stroke-linejoin:round;stroke-miterlimit:4;stroke-dasharray:none;stroke-dashoffset:0;stroke-opacity:1;filter:url(#filter12283);enable-background:new" id="rect10328" width="142.725" height="208.977" x="-197.363" y="71.011" mask="url(#mask12221)" transform="matrix(1.0121757,0,0,0.9998565,532.54677,271.1731)"/><g id="layer1-3" transform="matrix(0.4343146,0,0,0.4343146,344.48414,426.93751)" style="display:inline;enable-background:new"><rect id="rect1306" width="60" height="60" x="0" y="0" style="display:none;fill:none;fill-opacity:1;fill-rule:nonzero;stroke:none;stroke-width:9.375;stroke-linecap:round;stroke-linejoin:round;stroke-miterlimit:4;stroke-dasharray:none;stroke-dashoffset:0;stroke-opacity:1"/><circle id="path12085" cx="30" cy="30" r="23.75" transform="matrix(1.106056,0,0,1.107245,-3.181666,-3.245365)" style="fill:#000;fill-opacity:1;fill-rule:evenodd;stroke:#fff;stroke-width:4.375;stroke-linecap:butt;stroke-linejoin:miter;stroke-miterlimit:4;stroke-dasharray:none;stroke-opacity:1"/><text id="text3307" x="16.523" y="47.5" xml:space="preserve" style="font-style:normal;font-variant:normal;font-weight:700;font-stretch:normal;font-size:48px;line-height:125%;font-family:'Bitstream Vera Sans';text-align:start;writing-mode:lr-tb;text-anchor:start;opacity:1;fill:#fff;fill-opacity:1;fill-rule:nonzero;stroke:none;stroke-width:6;stroke-linecap:butt;stroke-linejoin:round;stroke-miterlimit:4;stroke-dasharray:none;stroke-dashoffset:0;stroke-opacity:1"><tspan id="tspan3309" x="16.523" y="47.5">?</tspan></text></g><g id="g12680" transform="matrix(0.5050253,0,0,0.5050253,345.39297,490.79112)" style="display:inline;enable-background:new"><rect id="rect6296" width="48" height="48" x="0" y="0" ry="0" style="fill:none;fill-opacity:.75;fill-rule:evenodd;stroke:none;stroke-width:1px;stroke-linecap:butt;stroke-linejoin:miter;stroke-opacity:1"/><rect style="fill:#fff;fill-opacity:1;fill-rule:evenodd;stroke:#fff;stroke-width:8;stroke-linecap:butt;stroke-linejoin:miter;stroke-miterlimit:4;stroke-dasharray:none;stroke-opacity:1" id="rect9204" width="37.961" height="26" x="5" y="16" rx="4.913" ry="4.913"/><path style="display:block;overflow:visible;visibility:visible;opacity:1;fill:#fff;fill-opacity:1;fill-rule:nonzero;stroke:#fff;stroke-width:8;stroke-linecap:butt;stroke-linejoin:miter;stroke-miterlimit:10;stroke-dasharray:none;stroke-dashoffset:0;stroke-opacity:1;marker:none;marker-start:none;marker-mid:none;marker-end:none" id="path9932" d="m 21,6 c -7,0 -9,4.173905 -9,11 l 24,0 C 36,10 34,6 27,6 l -6,0 z m 2,4.417323 2,0 C 32,10.417323 31,15 31,17 l -14,0 c 0,-2 -1,-6.582677 6,-6.582677 z"/><rect id="rect12685" width="37.961" height="26" x="5" y="16" rx="4.913" ry="4.913" style="fill:#000;fill-opacity:1;fill-rule:evenodd;stroke:none;stroke-width:1px;stroke-linecap:butt;stroke-linejoin:miter;stroke-opacity:1"/><path id="path4042" d="m 7,24 34,0" style="fill:none;fill-opacity:.75;fill-rule:evenodd;stroke:#fff;stroke-width:2;stroke-linecap:butt;stroke-linejoin:miter;stroke-miterlimit:4;stroke-dasharray:none;stroke-opacity:1"/><path id="path4772" d="m 36,21 0,8" style="fill:none;fill-opacity:.75;fill-rule:evenodd;stroke:#fff;stroke-width:4;stroke-linecap:butt;stroke-linejoin:miter;stroke-miterlimit:4;stroke-dasharray:none;stroke-opacity:1"/><path id="path2086" d="m 21,6 c -7,0 -9,4.173905 -9,11 l 24,0 C 36,10 34,6 27,6 l -6,0 z m 2,4.417323 2,0 C 32,10.417323 31,15 31,17 l -14,0 c 0,-2 -1,-6.582677 6,-6.582677 z" style="display:block;overflow:visible;visibility:visible;opacity:1;fill:#000;fill-opacity:1;fill-rule:nonzero;stroke:none;stroke-width:.9999997;stroke-linecap:butt;stroke-linejoin:miter;stroke-miterlimit:10;stroke-dasharray:none;stroke-dashoffset:0;stroke-opacity:1;marker:none;marker-start:none;marker-mid:none;marker-end:none"/><path style="fill:none;fill-opacity:.75;fill-rule:evenodd;stroke:#fff;stroke-width:4;stroke-linecap:butt;stroke-linejoin:miter;stroke-miterlimit:4;stroke-dasharray:none;stroke-opacity:1" id="path7024" d="m 12,21 0,8"/></g><g id="g12710" transform="matrix(0.5050253,0,0,0.5050253,345.39297,364.90157)" style="display:inline;enable-background:new"><rect id="rect4126" width="48" height="48" x="0" y="0" style="opacity:1;fill:none;fill-opacity:1;stroke:none;stroke-width:8;stroke-linecap:round;stroke-linejoin:round;stroke-miterlimit:4;stroke-dasharray:none;stroke-opacity:1"/><ellipse style="opacity:1;fill:#fff;fill-opacity:1;stroke:#fff;stroke-width:7.74596643;stroke-linecap:round;stroke-linejoin:round;stroke-miterlimit:4;stroke-dasharray:none;stroke-opacity:1" id="path5117" cx="13.5" cy="34" rx="7.5" ry="6" transform="matrix(1.0666667,0,0,1,-1.4,0)"/><path style="fill:#fff;fill-opacity:1;fill-rule:evenodd;stroke:#fff;stroke-width:8;stroke-linecap:round;stroke-linejoin:round;stroke-miterlimit:4;stroke-dasharray:none;stroke-opacity:1" id="path6090" d="m 21,34 0,-19 16,4 0,19 5,0 0,-27 -26,-7 0,30 5,0 z"/><ellipse id="path3149" cx="13.5" cy="34" rx="7.5" ry="6" transform="matrix(1.0666667,0,0,1,-1.4,0)" style="opacity:1;fill:#000;fill-opacity:1;stroke:none;stroke-width:8;stroke-linecap:round;stroke-linejoin:round;stroke-miterlimit:4;stroke-dasharray:none;stroke-opacity:1"/><ellipse id="path6088" cx="13.5" cy="34" rx="7.5" ry="6" transform="matrix(1.0666667,0,0,1,19.599999,3.9999999)" style="opacity:1;fill:#fff;fill-opacity:1;stroke:#fff;stroke-width:7.74596643;stroke-linecap:round;stroke-linejoin:round;stroke-miterlimit:4;stroke-dasharray:none;stroke-opacity:1"/><path id="path3153" d="m 21,34 0,-19 16,4 0,19 5,0 0,-27 -26,-7 0,30 5,0 z" style="fill:#000;fill-opacity:1;fill-rule:evenodd;stroke:none;stroke-width:1px;stroke-linecap:butt;stroke-linejoin:miter;stroke-opacity:1"/><use id="use4124" width="48" height="48" x="0" y="0" transform="translate(21,4)" xlink:href="#path3149"/></g><g id="g12732" transform="matrix(0.5050253,0,0,0.5050253,345.39297,459.31873)" style="display:inline;enable-background:new"><rect id="rect2290" width="48" height="48" x="0" y="0" ry="0" style="fill:none;fill-opacity:.44534409;fill-rule:evenodd;stroke:none;stroke-width:1px;stroke-linecap:butt;stroke-linejoin:miter;stroke-opacity:1"/><path style="fill:#fff;fill-opacity:1;fill-rule:evenodd;stroke:#fff;stroke-width:8;stroke-linecap:round;stroke-linejoin:round;stroke-miterlimit:4;stroke-dasharray:none;stroke-opacity:1" id="path3750" d="m 20,27 6,4 C 31.645697,27.712538 38.486676,20.641328 41.427261,11 L 31,4 C 24.965924,8.5653126 21.882044,16.647007 20,27 Z"/><path style="fill:#fff;fill-opacity:1;fill-rule:evenodd;stroke:#fff;stroke-width:8;stroke-linecap:butt;stroke-linejoin:round;stroke-miterlimit:4;stroke-dasharray:none;stroke-opacity:1" id="path5221" d="M 9,43 C 20,44 25.4609,41 24,32 L 20,30 C 12,32 17,39 9,43 Z"/><path id="path3020" d="m 21,28 4,2 C 30.645697,26.712538 38.486676,20.641328 41.427261,11 L 31,4 C 24.965924,8.5653126 22.882044,17.647007 21,28 Z" style="fill:#000;fill-opacity:1;fill-rule:evenodd;stroke:none;stroke-width:1px;stroke-linecap:butt;stroke-linejoin:miter;stroke-opacity:1"/><path id="path3748" d="M 9,43 C 20,44 25.4609,41 24,32 L 20,30 C 12,32 17,39 9,43 Z" style="fill:#000;fill-opacity:1;fill-rule:evenodd;stroke:none;stroke-width:1px;stroke-linecap:butt;stroke-linejoin:miter;stroke-opacity:1"/></g><g id="g12793" transform="matrix(0.5285955,0,0,0.5285955,344.82729,395.80827)" style="display:inline;enable-background:new"><path style="fill:none;fill-opacity:.30449823;fill-rule:nonzero;stroke:none;stroke-miterlimit:4" id="path12" d="M 48,48 0,48 0,0 48,0 48,48 Z"/><path id="path7" d="m 42.8,22.9 -2.4,-8.1 -5.6,1.6 c -1.1,-1.6 -2.7,-3 -4.4,-4 L 31.3,6.9 22.1,5.7 21.3,11 c -0.3,0.1 -0.7,0.2 -1,0.3 -1.2,0.3 -2.3,0.9 -3.3,1.5 L 12.7,9.5 7,16.4 l 4.5,3.5 c -0.4,1.1 -0.6,2.3 -0.6,3.6 l -5.6,1.6 2.4,8.1 5.6,-1.6 c 1.1,1.6 2.7,3 4.4,4 l -0.9,5.5 9.2,1.2 0.8,-5.3 c 0.3,-0.1 0.7,-0.2 1,-0.3 1.2,-0.3 2.3,-0.9 3.3,-1.5 l 4.3,3.3 5.7,-6.9 -4.5,-3.5 C 37,27 37.2,25.8 37.2,24.5 l 5.6,-1.6 0,0 z m -17.5,5.9 c -2.8,0.8 -5.8,-0.8 -6.7,-3.6 -0.9,-2.8 0.8,-5.8 3.6,-6.7 2.8,-0.8 5.8,0.8 6.7,3.6 0.8,2.8 -0.8,5.8 -3.6,6.7 z" style="fill:none;fill-rule:nonzero;stroke:#fff;stroke-width:7.45779991;stroke-linejoin:round;stroke-miterlimit:4"/><path id="path9" d="m 42.8,22.9 -2.4,-8.1 -5.6,1.6 c -1.1,-1.6 -2.7,-3 -4.4,-4 L 31.3,6.9 22.1,5.7 21.3,11 c -0.3,0.1 -0.7,0.2 -1,0.3 -1.2,0.3 -2.3,0.9 -3.3,1.5 L 12.7,9.5 7,16.4 l 4.5,3.5 c -0.4,1.1 -0.6,2.3 -0.6,3.6 l -5.6,1.6 2.4,8.1 5.6,-1.6 c 1.1,1.6 2.7,3 4.4,4 l -0.9,5.5 9.2,1.2 0.8,-5.3 c 0.3,-0.1 0.7,-0.2 1,-0.3 1.2,-0.3 2.3,-0.9 3.3,-1.5 l 4.3,3.3 5.7,-6.9 -4.5,-3.5 C 37,27 37.2,25.8 37.2,24.5 l 5.6,-1.6 0,0 z m -17.5,5.9 c -2.8,0.8 -5.8,-0.8 -6.7,-3.6 -0.9,-2.8 0.8,-5.8 3.6,-6.7 2.8,-0.8 5.8,0.8 6.7,3.6 0.8,2.8 -0.8,5.8 -3.6,6.7 z" style="fill-rule:nonzero;stroke:none;stroke-miterlimit:4"/></g><rect style="display:inline;opacity:.4;fill:#888a85;fill-opacity:1;stroke:none;stroke-width:5;stroke-linecap:round;stroke-linejoin:miter;stroke-miterlimit:4;stroke-dasharray:none;stroke-dashoffset:0;stroke-opacity:1;enable-background:new" id="rect12798" width="70.5" height="9" x="381.939" y="373.258"/><rect style="display:inline;opacity:.4;fill:#204a87;fill-opacity:1;stroke:none;stroke-width:5;stroke-linecap:round;stroke-linejoin:miter;stroke-miterlimit:4;stroke-dasharray:none;stroke-dashoffset:0;stroke-opacity:1;enable-background:new" id="rect12800" width="70.5" height="9" x="381.939" y="404.731"/><rect style="display:inline;opacity:.4;fill:#888a85;fill-opacity:1;stroke:none;stroke-width:5;stroke-linecap:round;stroke-linejoin:miter;stroke-miterlimit:4;stroke-dasharray:none;stroke-dashoffset:0;stroke-opacity:1;enable-background:new" id="rect12802" width="70.5" height="9" x="381.939" y="436.203"/><rect style="display:inline;opacity:.4;fill:#888a85;fill-opacity:1;stroke:none;stroke-width:5;stroke-linecap:round;stroke-linejoin:miter;stroke-miterlimit:4;stroke-dasharray:none;stroke-dashoffset:0;stroke-opacity:1;enable-background:new" id="rect12804" width="70.5" height="9" x="381.939" y="467.676"/><path style="display:inline;opacity:.4;fill:#888a85;fill-opacity:1;stroke:none;stroke-width:5;stroke-linecap:round;stroke-linejoin:miter;stroke-miterlimit:4;stroke-dashoffset:0;stroke-opacity:1;enable-background:new" id="rect12806" d="m 381.93941,499.14792 59.36307,0 -2.2981,9 -57.06497,0 0,-9 z"/><path id="path13113" d="m 439.61909,508.21542 29.75915,-17.02081 7.42462,-14.49569 -0.41421,-22.22361 -36.76956,53.74011 z" style="display:inline;opacity:.26153846;fill:#000;fill-opacity:1;fill-rule:evenodd;stroke:none;stroke-width:1px;stroke-linecap:butt;stroke-linejoin:miter;stroke-opacity:1;filter:url(#filter13151);enable-background:new"/><path style="display:inline;opacity:1;fill:url(#linearGradient13093);fill-opacity:1;fill-rule:evenodd;stroke:none;stroke-width:1px;stroke-linecap:butt;stroke-linejoin:miter;stroke-opacity:1;enable-background:new" id="path12840" d="m 503.93792,374.48703 -57.27565,99.20434 -7.43142,34.08481 25.93201,-22.99525 58.54776,-99.28638 c 0,0 3.56618,-8.14726 -5.68473,-13.48828 -9.09782,-5.25263 -14.08797,2.48076 -14.08797,2.48076 z"/><path id="path12822" d="m 489.1529,400.01615 c 0,0 6.08702,-3.44314 11.95317,0.14616 6.04336,3.69774 7.46731,11.08571 7.46731,11.08571 l 5.65892,-9.8983 c 0,0 -0.35645,-7.95891 -6.74753,-11.91086 -6.56676,-4.06057 -12.40502,-0.0323 -12.40502,-0.0323 l -5.92685,10.60964 z" style="display:inline;overflow:visible;visibility:visible;opacity:1;fill:url(#linearGradient13095);fill-opacity:1;fill-rule:evenodd;stroke:none;stroke-width:1;stroke-linecap:butt;stroke-linejoin:miter;stroke-miterlimit:4;stroke-dasharray:none;stroke-dashoffset:0;stroke-opacity:1;marker:none;marker-start:none;marker-mid:none;marker-end:none;enable-background:new"/><path id="path12824" d="m 439.2323,507.66815 7.25407,-33.40978 c 8.65606,-0.89155 15.81829,2.88495 18.60088,10.63265 l -25.85495,22.77713 z" style="display:inline;overflow:visible;visibility:visible;opacity:1;fill:url(#radialGradient13097);fill-opacity:1;fill-rule:evenodd;stroke:none;stroke-width:1;stroke-linecap:butt;stroke-linejoin:miter;stroke-miterlimit:4;stroke-dasharray:none;stroke-dashoffset:0;stroke-opacity:1;marker:none;marker-start:none;marker-mid:none;marker-end:none;enable-background:new"/><path id="path12826" d="m 441.84023,496.29027 -2.66586,11.58332 9.37889,-8.25467 c -1.14571,-3.65558 -3.84583,-3.93501 -6.71303,-3.32865 z" style="display:inline;overflow:visible;visibility:visible;opacity:1;fill:url(#linearGradient13099);fill-opacity:1;fill-rule:evenodd;stroke:none;stroke-width:1;stroke-linecap:butt;stroke-linejoin:miter;stroke-miterlimit:4;stroke-dasharray:none;stroke-dashoffset:0;stroke-opacity:1;marker:none;marker-start:none;marker-mid:none;marker-end:none;enable-background:new"/><path id="path12828" d="m 446.44827,474.0371 c 2.90069,-0.12206 5.19603,0.12729 9.67237,1.14625 l 43.99992,-75.45372 c -4.33417,-2.32733 -8.34511,-1.00654 -11.35081,0.56025 l -42.32148,73.74722 z" style="display:inline;overflow:visible;visibility:visible;opacity:.24615383;fill:#fff;fill-opacity:.36363639;fill-rule:evenodd;stroke:none;stroke-width:1;stroke-linecap:butt;stroke-linejoin:miter;stroke-miterlimit:4;stroke-dasharray:none;stroke-dashoffset:0;stroke-opacity:1;marker:none;marker-start:none;marker-mid:none;marker-end:none;enable-background:new"/><path id="path12830" d="m 465.07367,484.65696 -1.71277,-3.09884 43.94219,-74.30653 c 0,0 1.30214,2.8984 1.24769,3.77294 l -43.47711,73.63243 z" style="display:inline;overflow:visible;visibility:visible;opacity:.29230783;fill:#000;fill-opacity:.36363639;fill-rule:evenodd;stroke:none;stroke-width:1;stroke-linecap:butt;stroke-linejoin:miter;stroke-miterlimit:4;stroke-dasharray:none;stroke-dashoffset:0;stroke-opacity:1;marker:none;marker-start:none;marker-mid:none;marker-end:none;enable-background:new"/><path style="display:inline;opacity:1;fill:url(#linearGradient13101);fill-opacity:1;fill-rule:evenodd;stroke:none;stroke-width:1px;stroke-linecap:butt;stroke-linejoin:miter;stroke-opacity:1;enable-background:new" id="path12842" d="m 495.13655,389.33502 c 0,0 5.47065,-3.07064 12.42168,0.94253 6.95283,4.01422 6.53542,11.50594 6.53542,11.50594 l 10.2975,-17.46764 c 0,0 3.41435,-7.47981 -5.63193,-12.70269 -8.88698,-5.1309 -14.50769,1.93426 -14.50769,1.93426 l -9.11498,15.7876 z"/><path style="display:inline;opacity:.45641025;fill:none;fill-opacity:1;fill-rule:evenodd;stroke:#2e3436;stroke-width:5;stroke-linecap:butt;stroke-linejoin:miter;stroke-miterlimit:4;stroke-dasharray:none;stroke-opacity:1;filter:url(#filter12956);enable-background:new" id="path12916" d="m 6.0104077,95.646138 0,114.551302 10.6066013,33.23402 10.960155,-32.88047 0.420932,-45.74123 0.639729,-69.517176 c 0,0 -0.98523,-8.838834 -11.667263,-8.838834 -10.5052553,0 -10.9601543,9.192388 -10.9601543,9.192388 z" mask="url(#mask12964)" transform="matrix(0.8660254,0.5,-0.5,0.8660254,546.86202,289.07662)"/><ellipse id="path10244" cx="483.286" cy="551.02" rx="56.111" ry="19.198" style="display:inline;opacity:.13333333;fill:url(#radialGradient10262);fill-opacity:1;stroke:none;stroke-width:1.08584559;stroke-linecap:round;stroke-linejoin:round;stroke-miterlimit:4;stroke-dasharray:none;stroke-dashoffset:0;stroke-opacity:1;enable-background:new"/></g></g></svg>